<?xml version="1.0" standalone="no"?>
<!DOCTYPE svg PUBLIC "-//W3C//DTD SVG 20010904//EN"
 "http://www.w3.org/TR/2001/REC-SVG-20010904/DTD/svg10.dtd">
<svg version="1.0" xmlns="http://www.w3.org/2000/svg"
 width="1000.000000pt" height="1000.000000pt" viewBox="0 0 1000.000000 1000.000000"
 preserveAspectRatio="xMidYMid meet">
<metadata>
Created by potrace 1.11, written by Peter Selinger 2001-2013
</metadata>
<g transform="translate(0.000000,1000.000000) scale(0.100000,-0.100000)"
fill="#000000" stroke="none">
<path d="M4020 9955 c-8 -2 -49 -9 -90 -15 -298 -48 -637 -214 -925 -454 -97
-81 -293 -283 -382 -393 -181 -225 -560 -790 -697 -1038 -9 -16 -26 -46 -38
-65 -29 -50 -124 -219 -180 -325 -78 -146 -288 -576 -288 -590 0 -2 -16 -39
-36 -82 -20 -43 -45 -100 -56 -128 -10 -27 -25 -63 -32 -80 -42 -93 -148 -379
-206 -555 -32 -98 -99 -312 -105 -338 -3 -9 -20 -75 -40 -147 -19 -71 -37
-139 -40 -150 -24 -98 -48 -201 -59 -255 -31 -145 -55 -267 -61 -310 -3 -25
-8 -52 -10 -60 -5 -17 -11 -55 -20 -115 -3 -22 -10 -65 -15 -95 -5 -30 -12
-80 -15 -110 -4 -30 -8 -66 -10 -80 -2 -14 -7 -54 -11 -90 -4 -36 -8 -76 -10
-90 -2 -14 -6 -62 -9 -108 -4 -45 -8 -90 -10 -100 -25 -135 -26 -1218 0 -1352
2 -8 6 -60 10 -115 4 -55 9 -102 10 -105 2 -3 6 -35 9 -71 4 -35 8 -75 11 -88
2 -13 7 -49 11 -80 3 -31 8 -59 10 -62 1 -3 6 -28 9 -55 4 -27 16 -89 27 -139
11 -49 22 -100 24 -113 33 -170 115 -432 196 -627 327 -783 801 -1219 1417
-1299 61 -8 244 -8 319 -1 51 6 184 31 252 49 14 4 121 41 193 68 l28 10 -60
62 c-76 77 -132 149 -232 298 -43 64 -82 119 -87 122 -5 3 -40 10 -78 16 -38
6 -82 13 -99 16 -61 10 -197 63 -272 105 -147 83 -286 247 -378 444 -57 124
-148 389 -169 495 -3 14 -16 79 -30 145 -13 66 -27 145 -30 176 -4 31 -8 65
-10 75 -5 26 -17 162 -22 243 -14 256 -17 368 -17 606 0 238 8 490 18 595 2
19 6 75 10 123 3 49 8 103 10 120 2 18 6 61 10 97 3 36 8 76 10 90 2 14 6 54
10 90 3 36 8 72 10 80 2 8 7 35 10 60 3 25 10 70 15 100 5 30 12 75 15 100 3
25 8 52 10 60 2 8 6 33 10 55 3 22 7 47 10 55 2 8 6 31 9 50 3 19 14 76 25
125 11 50 22 104 25 120 5 23 79 337 102 428 2 9 6 25 8 35 7 28 55 192 73
252 9 30 18 60 19 65 6 33 145 451 199 600 168 461 368 922 614 1415 76 151
154 304 173 340 19 36 55 101 78 145 200 374 474 689 765 880 221 145 447 166
666 62 l67 -32 78 74 c141 131 361 303 419 325 5 2 -12 27 -40 56 -73 77 -147
129 -303 217 -52 29 -199 93 -227 99 -11 2 -29 8 -40 13 -64 31 -216 54 -375
56 -91 2 -172 2 -180 0z"/>
<path d="M6428 9745 c-2 -1 -32 -5 -68 -9 -416 -40 -859 -282 -1299 -711 -129
-125 -366 -386 -446 -489 -16 -22 -48 -62 -71 -90 -113 -141 -269 -363 -426
-606 -49 -75 -178 -290 -178 -296 0 -2 -11 -21 -24 -42 -12 -20 -37 -64 -55
-97 -18 -33 -42 -76 -53 -95 -40 -67 -287 -567 -373 -755 -218 -475 -362 -856
-494 -1300 -27 -92 -108 -414 -115 -458 -3 -18 -8 -40 -10 -48 -3 -8 -7 -25
-10 -39 -2 -14 -11 -59 -19 -100 -9 -41 -18 -92 -21 -114 -4 -21 -8 -41 -10
-45 -2 -3 -7 -30 -10 -60 -4 -29 -8 -56 -10 -60 -2 -3 -6 -28 -10 -56 -3 -27
-8 -68 -11 -90 -3 -22 -8 -56 -11 -75 -3 -19 -7 -51 -9 -70 -3 -38 -13 -124
-20 -180 -2 -19 -7 -66 -10 -105 -3 -38 -7 -92 -10 -120 -24 -279 -25 -1075 0
-1235 2 -14 6 -65 10 -114 4 -50 8 -97 10 -106 2 -10 6 -41 10 -71 13 -110 57
-347 86 -464 134 -538 405 -1016 744 -1310 96 -84 278 -189 410 -238 101 -38
175 -55 317 -77 63 -9 400 -7 448 4 14 2 53 10 88 16 326 57 813 293 1187 573
211 159 447 393 519 514 8 15 -4 11 -84 -25 -582 -260 -1100 -438 -1390 -478
-25 -3 -54 -8 -65 -11 -53 -13 -344 -11 -419 3 -323 59 -542 255 -684 614 -30
77 -86 267 -96 330 -3 19 -8 46 -11 60 -23 104 -52 372 -61 560 -4 98 -4 491
0 565 2 28 7 102 10 165 4 63 9 133 11 155 2 22 7 74 10 115 4 41 8 82 10 90
2 8 6 51 10 95 3 44 8 87 10 95 2 8 7 40 10 70 3 30 10 80 15 110 6 30 19 114
31 185 21 134 82 440 101 510 5 22 12 51 15 65 13 73 100 393 155 575 86 283
249 741 323 910 7 17 23 55 35 85 12 30 35 83 51 118 16 35 29 65 29 68 0 2
18 43 40 90 22 47 40 87 40 89 0 3 118 251 167 350 135 275 346 659 530 966
54 90 102 172 108 181 49 85 181 288 237 366 206 286 487 547 707 657 214 108
388 116 611 28 55 -22 192 -98 225 -125 6 -5 45 -36 88 -69 86 -66 268 -244
362 -353 33 -38 65 -74 71 -80 33 -35 215 -281 295 -401 157 -234 268 -426
410 -712 50 -101 93 -183 95 -183 3 0 3 3 0 8 -2 4 -7 52 -10 107 -6 87 -16
174 -32 265 -2 14 -7 41 -10 60 -134 820 -502 1562 -989 1989 -183 160 -465
299 -682 336 -18 3 -48 8 -65 11 -34 6 -265 14 -270 9z"/>
<path d="M8935 6943 c-60 -80 -123 -165 -140 -188 -104 -147 -196 -276 -235
-331 -223 -313 -276 -387 -285 -397 -6 -7 -59 -79 -118 -162 -59 -82 -146
-204 -194 -270 -48 -66 -134 -186 -192 -266 -175 -242 -629 -866 -720 -989
-142 -191 -267 -382 -291 -445 -33 -85 -33 -183 0 -248 29 -58 85 -111 168
-160 180 -105 367 -75 502 82 36 41 134 226 170 321 7 19 20 43 28 53 8 9 12
17 9 17 -3 0 10 31 29 70 18 38 34 72 34 74 0 3 25 57 55 121 30 65 55 119 55
120 0 2 15 36 34 77 30 64 175 385 251 553 15 33 37 83 50 110 12 28 64 142
115 255 51 113 103 230 117 260 14 30 43 96 65 145 45 101 65 147 115 255 19
41 40 89 48 105 7 17 24 55 38 85 21 46 161 358 229 510 11 25 33 72 48 105
16 33 40 86 54 118 14 31 37 82 51 112 14 30 24 55 22 55 -1 0 -51 -66 -112
-147z m-1714 -2961 c45 -18 71 -66 76 -141 4 -57 2 -70 -19 -100 -46 -67 -138
-91 -213 -55 -50 23 -78 67 -83 128 -3 43 1 58 25 94 49 74 136 104 214 74z"/>
<path d="M7178 6596 c-1 -2 -66 -6 -143 -10 -143 -6 -209 -11 -280 -22 -22 -3
-52 -7 -67 -9 -114 -15 -299 -59 -436 -104 -341 -112 -626 -285 -859 -522 -45
-46 -92 -97 -105 -114 -12 -16 -25 -32 -28 -35 -39 -36 -171 -244 -230 -359
-104 -207 -199 -532 -225 -766 -3 -27 -8 -61 -10 -75 -30 -162 -24 -660 10
-870 3 -19 8 -49 10 -66 2 -16 16 -84 30 -150 152 -680 552 -1200 1135 -1476
128 -60 365 -144 460 -162 14 -3 66 -13 115 -24 50 -11 117 -23 150 -27 33 -4
71 -9 85 -11 160 -20 562 -27 727 -11 112 10 359 52 457 78 315 83 633 238
856 417 136 109 299 288 394 432 27 41 57 87 67 101 31 46 136 271 167 359 34
94 65 199 82 275 7 28 14 59 16 70 8 35 43 239 48 280 28 236 29 747 1 855 -2
8 -6 33 -10 55 -54 372 -222 743 -469 1035 -48 56 -272 277 -293 288 -17 10
-29 -9 -127 -206 l-108 -218 117 -189 c65 -105 139 -233 166 -285 88 -177 151
-391 183 -624 16 -116 18 -401 4 -531 -8 -70 -45 -278 -62 -340 -42 -156 -82
-261 -156 -410 -168 -336 -395 -562 -747 -743 -146 -75 -344 -148 -453 -168
-14 -3 -41 -9 -60 -14 -19 -5 -62 -12 -95 -16 -33 -3 -69 -8 -80 -11 -27 -5
-345 -5 -370 1 -11 2 -49 7 -85 11 -36 4 -67 8 -70 10 -3 2 -27 6 -54 9 -27 4
-53 9 -56 11 -4 2 -20 6 -36 9 -114 20 -404 125 -556 201 -269 135 -506 348
-644 581 -95 159 -198 446 -219 609 -3 22 -7 56 -10 75 -16 117 -20 188 -20
390 0 287 8 369 55 580 132 594 513 994 1120 1178 69 21 211 56 270 66 19 3
46 8 60 11 14 3 45 8 70 11 25 3 68 10 95 15 53 9 446 5 505 -5 127 -23 187
-30 339 -42 l88 -6 44 69 c24 37 95 142 158 231 62 90 111 165 108 168 -3 3
-54 16 -114 29 -59 13 -139 31 -178 39 -38 9 -88 19 -110 22 -22 3 -47 8 -55
9 -71 14 -177 22 -395 30 -82 4 -155 8 -162 10 -6 2 -13 2 -15 1z"/>
<path d="M7017 5624 c-1 -1 -38 -4 -82 -8 -213 -18 -473 -114 -650 -241 -263
-188 -442 -444 -546 -779 -20 -66 -21 -67 65 41 165 206 386 382 620 492 66
31 226 88 270 97 12 2 44 8 71 13 99 20 132 23 240 22 67 -1 145 -9 200 -20
50 -11 93 -16 97 -13 3 4 60 79 127 167 l120 160 -42 12 c-54 16 -177 40 -247
49 -51 6 -238 13 -243 8z"/>
<path d="M8263 4818 l-82 -162 27 -45 c14 -25 29 -48 32 -51 16 -13 111 -214
138 -290 56 -161 76 -293 77 -507 0 -212 -1 -210 55 -68 75 188 112 373 111
555 0 63 -2 124 -5 135 -2 11 -7 41 -10 67 -10 72 -54 215 -88 288 -47 99
-146 240 -168 240 -3 0 -43 -73 -87 -162z"/>
</g>
</svg>
